<mxfile host="app.diagrams.net" modified="2020-11-02T20:30:14.311Z" agent="5.0 (Windows NT 10.0; Win64; x64) AppleWebKit/537.36 (KHTML, like Gecko) Chrome/86.0.4240.111 Safari/537.36" etag="58Z047hMQcdAwKuMuqp0" version="13.8.8" type="github">
  <diagram id="Vd4Sg8NFE2fkGkpVhoSi" name="Page-1">
    <mxGraphModel dx="813" dy="458" grid="1" gridSize="10" guides="1" tooltips="1" connect="1" arrows="1" fold="1" page="1" pageScale="1" pageWidth="1169" pageHeight="827" math="0" shadow="0">
      <root>
        <mxCell id="0" />
        <mxCell id="1" parent="0" />
        <mxCell id="tW5KRWOFJC_Va-rLxCqM-1" value="Image" style="shape=table;startSize=30;container=1;collapsible=1;childLayout=tableLayout;fixedRows=1;rowLines=0;fontStyle=1;align=center;resizeLast=1;" vertex="1" parent="1">
          <mxGeometry x="160" y="200" width="180" height="240" as="geometry" />
        </mxCell>
        <mxCell id="tW5KRWOFJC_Va-rLxCqM-2" value="" style="shape=partialRectangle;collapsible=0;dropTarget=0;pointerEvents=0;fillColor=none;top=0;left=0;bottom=1;right=0;points=[[0,0.5],[1,0.5]];portConstraint=eastwest;" vertex="1" parent="tW5KRWOFJC_Va-rLxCqM-1">
          <mxGeometry y="30" width="180" height="30" as="geometry" />
        </mxCell>
        <mxCell id="tW5KRWOFJC_Va-rLxCqM-3" value="PK" style="shape=partialRectangle;connectable=0;fillColor=none;top=0;left=0;bottom=0;right=0;fontStyle=1;overflow=hidden;" vertex="1" parent="tW5KRWOFJC_Va-rLxCqM-2">
          <mxGeometry width="30" height="30" as="geometry" />
        </mxCell>
        <mxCell id="tW5KRWOFJC_Va-rLxCqM-4" value="imageId" style="shape=partialRectangle;connectable=0;fillColor=none;top=0;left=0;bottom=0;right=0;align=left;spacingLeft=6;fontStyle=5;overflow=hidden;dashed=1;" vertex="1" parent="tW5KRWOFJC_Va-rLxCqM-2">
          <mxGeometry x="30" width="150" height="30" as="geometry" />
        </mxCell>
        <mxCell id="tW5KRWOFJC_Va-rLxCqM-5" value="" style="shape=partialRectangle;collapsible=0;dropTarget=0;pointerEvents=0;fillColor=none;top=0;left=0;bottom=0;right=0;points=[[0,0.5],[1,0.5]];portConstraint=eastwest;" vertex="1" parent="tW5KRWOFJC_Va-rLxCqM-1">
          <mxGeometry y="60" width="180" height="30" as="geometry" />
        </mxCell>
        <mxCell id="tW5KRWOFJC_Va-rLxCqM-6" value="" style="shape=partialRectangle;connectable=0;fillColor=none;top=0;left=0;bottom=0;right=0;editable=1;overflow=hidden;" vertex="1" parent="tW5KRWOFJC_Va-rLxCqM-5">
          <mxGeometry width="30" height="30" as="geometry" />
        </mxCell>
        <mxCell id="tW5KRWOFJC_Va-rLxCqM-7" value="title" style="shape=partialRectangle;connectable=0;fillColor=none;top=0;left=0;bottom=0;right=0;align=left;spacingLeft=6;overflow=hidden;" vertex="1" parent="tW5KRWOFJC_Va-rLxCqM-5">
          <mxGeometry x="30" width="150" height="30" as="geometry" />
        </mxCell>
        <mxCell id="tW5KRWOFJC_Va-rLxCqM-8" value="" style="shape=partialRectangle;collapsible=0;dropTarget=0;pointerEvents=0;fillColor=none;top=0;left=0;bottom=0;right=0;points=[[0,0.5],[1,0.5]];portConstraint=eastwest;" vertex="1" parent="tW5KRWOFJC_Va-rLxCqM-1">
          <mxGeometry y="90" width="180" height="30" as="geometry" />
        </mxCell>
        <mxCell id="tW5KRWOFJC_Va-rLxCqM-9" value="" style="shape=partialRectangle;connectable=0;fillColor=none;top=0;left=0;bottom=0;right=0;editable=1;overflow=hidden;" vertex="1" parent="tW5KRWOFJC_Va-rLxCqM-8">
          <mxGeometry width="30" height="30" as="geometry" />
        </mxCell>
        <mxCell id="tW5KRWOFJC_Va-rLxCqM-10" value="description" style="shape=partialRectangle;connectable=0;fillColor=none;top=0;left=0;bottom=0;right=0;align=left;spacingLeft=6;overflow=hidden;" vertex="1" parent="tW5KRWOFJC_Va-rLxCqM-8">
          <mxGeometry x="30" width="150" height="30" as="geometry" />
        </mxCell>
        <mxCell id="tW5KRWOFJC_Va-rLxCqM-11" value="" style="shape=partialRectangle;collapsible=0;dropTarget=0;pointerEvents=0;fillColor=none;top=0;left=0;bottom=0;right=0;points=[[0,0.5],[1,0.5]];portConstraint=eastwest;" vertex="1" parent="tW5KRWOFJC_Va-rLxCqM-1">
          <mxGeometry y="120" width="180" height="30" as="geometry" />
        </mxCell>
        <mxCell id="tW5KRWOFJC_Va-rLxCqM-12" value="" style="shape=partialRectangle;connectable=0;fillColor=none;top=0;left=0;bottom=0;right=0;editable=1;overflow=hidden;" vertex="1" parent="tW5KRWOFJC_Va-rLxCqM-11">
          <mxGeometry width="30" height="30" as="geometry" />
        </mxCell>
        <mxCell id="tW5KRWOFJC_Va-rLxCqM-13" value="base64" style="shape=partialRectangle;connectable=0;fillColor=none;top=0;left=0;bottom=0;right=0;align=left;spacingLeft=6;overflow=hidden;" vertex="1" parent="tW5KRWOFJC_Va-rLxCqM-11">
          <mxGeometry x="30" width="150" height="30" as="geometry" />
        </mxCell>
        <mxCell id="tW5KRWOFJC_Va-rLxCqM-27" value="Gallery" style="shape=table;startSize=30;container=1;collapsible=1;childLayout=tableLayout;fixedRows=1;rowLines=0;fontStyle=1;align=center;resizeLast=1;" vertex="1" parent="1">
          <mxGeometry x="480" y="200" width="180" height="250" as="geometry" />
        </mxCell>
        <mxCell id="tW5KRWOFJC_Va-rLxCqM-28" value="" style="shape=partialRectangle;collapsible=0;dropTarget=0;pointerEvents=0;fillColor=none;top=0;left=0;bottom=1;right=0;points=[[0,0.5],[1,0.5]];portConstraint=eastwest;" vertex="1" parent="tW5KRWOFJC_Va-rLxCqM-27">
          <mxGeometry y="30" width="180" height="30" as="geometry" />
        </mxCell>
        <mxCell id="tW5KRWOFJC_Va-rLxCqM-29" value="PK" style="shape=partialRectangle;connectable=0;fillColor=none;top=0;left=0;bottom=0;right=0;fontStyle=1;overflow=hidden;" vertex="1" parent="tW5KRWOFJC_Va-rLxCqM-28">
          <mxGeometry width="30" height="30" as="geometry" />
        </mxCell>
        <mxCell id="tW5KRWOFJC_Va-rLxCqM-30" value="galleryId" style="shape=partialRectangle;connectable=0;fillColor=none;top=0;left=0;bottom=0;right=0;align=left;spacingLeft=6;fontStyle=5;overflow=hidden;" vertex="1" parent="tW5KRWOFJC_Va-rLxCqM-28">
          <mxGeometry x="30" width="150" height="30" as="geometry" />
        </mxCell>
        <mxCell id="tW5KRWOFJC_Va-rLxCqM-31" value="" style="shape=partialRectangle;collapsible=0;dropTarget=0;pointerEvents=0;fillColor=none;top=0;left=0;bottom=0;right=0;points=[[0,0.5],[1,0.5]];portConstraint=eastwest;" vertex="1" parent="tW5KRWOFJC_Va-rLxCqM-27">
          <mxGeometry y="60" width="180" height="30" as="geometry" />
        </mxCell>
        <mxCell id="tW5KRWOFJC_Va-rLxCqM-32" value="" style="shape=partialRectangle;connectable=0;fillColor=none;top=0;left=0;bottom=0;right=0;editable=1;overflow=hidden;" vertex="1" parent="tW5KRWOFJC_Va-rLxCqM-31">
          <mxGeometry width="30" height="30" as="geometry" />
        </mxCell>
        <mxCell id="tW5KRWOFJC_Va-rLxCqM-33" value="title" style="shape=partialRectangle;connectable=0;fillColor=none;top=0;left=0;bottom=0;right=0;align=left;spacingLeft=6;overflow=hidden;" vertex="1" parent="tW5KRWOFJC_Va-rLxCqM-31">
          <mxGeometry x="30" width="150" height="30" as="geometry" />
        </mxCell>
        <mxCell id="tW5KRWOFJC_Va-rLxCqM-34" value="" style="shape=partialRectangle;collapsible=0;dropTarget=0;pointerEvents=0;fillColor=none;top=0;left=0;bottom=0;right=0;points=[[0,0.5],[1,0.5]];portConstraint=eastwest;" vertex="1" parent="tW5KRWOFJC_Va-rLxCqM-27">
          <mxGeometry y="90" width="180" height="30" as="geometry" />
        </mxCell>
        <mxCell id="tW5KRWOFJC_Va-rLxCqM-35" value="" style="shape=partialRectangle;connectable=0;fillColor=none;top=0;left=0;bottom=0;right=0;editable=1;overflow=hidden;" vertex="1" parent="tW5KRWOFJC_Va-rLxCqM-34">
          <mxGeometry width="30" height="30" as="geometry" />
        </mxCell>
        <mxCell id="tW5KRWOFJC_Va-rLxCqM-36" value="description" style="shape=partialRectangle;connectable=0;fillColor=none;top=0;left=0;bottom=0;right=0;align=left;spacingLeft=6;overflow=hidden;" vertex="1" parent="tW5KRWOFJC_Va-rLxCqM-34">
          <mxGeometry x="30" width="150" height="30" as="geometry" />
        </mxCell>
        <mxCell id="tW5KRWOFJC_Va-rLxCqM-37" value="" style="shape=partialRectangle;collapsible=0;dropTarget=0;pointerEvents=0;fillColor=none;top=0;left=0;bottom=0;right=0;points=[[0,0.5],[1,0.5]];portConstraint=eastwest;dashed=1;" vertex="1" parent="tW5KRWOFJC_Va-rLxCqM-27">
          <mxGeometry y="120" width="180" height="30" as="geometry" />
        </mxCell>
        <mxCell id="tW5KRWOFJC_Va-rLxCqM-38" value="" style="shape=partialRectangle;connectable=0;fillColor=none;top=0;left=0;bottom=0;right=0;editable=1;overflow=hidden;" vertex="1" parent="tW5KRWOFJC_Va-rLxCqM-37">
          <mxGeometry width="30" height="30" as="geometry" />
        </mxCell>
        <mxCell id="tW5KRWOFJC_Va-rLxCqM-39" value="thumbnailId" style="shape=partialRectangle;connectable=0;fillColor=none;top=0;left=0;bottom=0;right=0;align=left;spacingLeft=6;overflow=hidden;dashed=1;" vertex="1" parent="tW5KRWOFJC_Va-rLxCqM-37">
          <mxGeometry x="30" width="150" height="30" as="geometry" />
        </mxCell>
        <mxCell id="tW5KRWOFJC_Va-rLxCqM-44" value="" style="endArrow=none;html=1;startArrow=classic;startFill=1;exitX=1.007;exitY=-0.095;exitDx=0;exitDy=0;exitPerimeter=0;entryX=-0.013;entryY=0.905;entryDx=0;entryDy=0;entryPerimeter=0;" edge="1" parent="1" source="tW5KRWOFJC_Va-rLxCqM-8" target="tW5KRWOFJC_Va-rLxCqM-31">
          <mxGeometry width="50" height="50" relative="1" as="geometry">
            <mxPoint x="330" y="280" as="sourcePoint" />
            <mxPoint x="469" y="280" as="targetPoint" />
          </mxGeometry>
        </mxCell>
        <mxCell id="tW5KRWOFJC_Va-rLxCqM-45" value="Settings" style="shape=table;startSize=30;container=1;collapsible=1;childLayout=tableLayout;fixedRows=1;rowLines=0;fontStyle=1;align=center;resizeLast=1;" vertex="1" parent="1">
          <mxGeometry x="800" y="200" width="180" height="370" as="geometry" />
        </mxCell>
        <mxCell id="tW5KRWOFJC_Va-rLxCqM-46" value="" style="shape=partialRectangle;collapsible=0;dropTarget=0;pointerEvents=0;fillColor=none;top=0;left=0;bottom=1;right=0;points=[[0,0.5],[1,0.5]];portConstraint=eastwest;" vertex="1" parent="tW5KRWOFJC_Va-rLxCqM-45">
          <mxGeometry y="30" width="180" height="30" as="geometry" />
        </mxCell>
        <mxCell id="tW5KRWOFJC_Va-rLxCqM-47" value="PK" style="shape=partialRectangle;connectable=0;fillColor=none;top=0;left=0;bottom=0;right=0;fontStyle=1;overflow=hidden;" vertex="1" parent="tW5KRWOFJC_Va-rLxCqM-46">
          <mxGeometry width="30" height="30" as="geometry" />
        </mxCell>
        <mxCell id="tW5KRWOFJC_Va-rLxCqM-48" value="settingsId" style="shape=partialRectangle;connectable=0;fillColor=none;top=0;left=0;bottom=0;right=0;align=left;spacingLeft=6;fontStyle=5;overflow=hidden;" vertex="1" parent="tW5KRWOFJC_Va-rLxCqM-46">
          <mxGeometry x="30" width="150" height="30" as="geometry" />
        </mxCell>
        <mxCell id="tW5KRWOFJC_Va-rLxCqM-49" value="" style="shape=partialRectangle;collapsible=0;dropTarget=0;pointerEvents=0;fillColor=none;top=0;left=0;bottom=0;right=0;points=[[0,0.5],[1,0.5]];portConstraint=eastwest;" vertex="1" parent="tW5KRWOFJC_Va-rLxCqM-45">
          <mxGeometry y="60" width="180" height="30" as="geometry" />
        </mxCell>
        <mxCell id="tW5KRWOFJC_Va-rLxCqM-50" value="" style="shape=partialRectangle;connectable=0;fillColor=none;top=0;left=0;bottom=0;right=0;editable=1;overflow=hidden;" vertex="1" parent="tW5KRWOFJC_Va-rLxCqM-49">
          <mxGeometry width="30" height="30" as="geometry" />
        </mxCell>
        <mxCell id="tW5KRWOFJC_Va-rLxCqM-51" value="username" style="shape=partialRectangle;connectable=0;fillColor=none;top=0;left=0;bottom=0;right=0;align=left;spacingLeft=6;overflow=hidden;" vertex="1" parent="tW5KRWOFJC_Va-rLxCqM-49">
          <mxGeometry x="30" width="150" height="30" as="geometry" />
        </mxCell>
        <mxCell id="tW5KRWOFJC_Va-rLxCqM-52" value="" style="shape=partialRectangle;collapsible=0;dropTarget=0;pointerEvents=0;fillColor=none;top=0;left=0;bottom=0;right=0;points=[[0,0.5],[1,0.5]];portConstraint=eastwest;" vertex="1" parent="tW5KRWOFJC_Va-rLxCqM-45">
          <mxGeometry y="90" width="180" height="30" as="geometry" />
        </mxCell>
        <mxCell id="tW5KRWOFJC_Va-rLxCqM-53" value="" style="shape=partialRectangle;connectable=0;fillColor=none;top=0;left=0;bottom=0;right=0;editable=1;overflow=hidden;" vertex="1" parent="tW5KRWOFJC_Va-rLxCqM-52">
          <mxGeometry width="30" height="30" as="geometry" />
        </mxCell>
        <mxCell id="tW5KRWOFJC_Va-rLxCqM-54" value="password" style="shape=partialRectangle;connectable=0;fillColor=none;top=0;left=0;bottom=0;right=0;align=left;spacingLeft=6;overflow=hidden;" vertex="1" parent="tW5KRWOFJC_Va-rLxCqM-52">
          <mxGeometry x="30" width="150" height="30" as="geometry" />
        </mxCell>
        <mxCell id="tW5KRWOFJC_Va-rLxCqM-55" value="" style="shape=partialRectangle;collapsible=0;dropTarget=0;pointerEvents=0;fillColor=none;top=0;left=0;bottom=0;right=0;points=[[0,0.5],[1,0.5]];portConstraint=eastwest;" vertex="1" parent="tW5KRWOFJC_Va-rLxCqM-45">
          <mxGeometry y="120" width="180" height="30" as="geometry" />
        </mxCell>
        <mxCell id="tW5KRWOFJC_Va-rLxCqM-56" value="" style="shape=partialRectangle;connectable=0;fillColor=none;top=0;left=0;bottom=0;right=0;editable=1;overflow=hidden;" vertex="1" parent="tW5KRWOFJC_Va-rLxCqM-55">
          <mxGeometry width="30" height="30" as="geometry" />
        </mxCell>
        <mxCell id="tW5KRWOFJC_Va-rLxCqM-57" value="authorName" style="shape=partialRectangle;connectable=0;fillColor=none;top=0;left=0;bottom=0;right=0;align=left;spacingLeft=6;overflow=hidden;" vertex="1" parent="tW5KRWOFJC_Va-rLxCqM-55">
          <mxGeometry x="30" width="150" height="30" as="geometry" />
        </mxCell>
        <mxCell id="tW5KRWOFJC_Va-rLxCqM-59" value="orderNr" style="shape=partialRectangle;connectable=0;fillColor=none;top=0;left=0;bottom=0;right=0;align=left;spacingLeft=6;overflow=hidden;" vertex="1" parent="1">
          <mxGeometry x="510" y="350" width="150" height="30" as="geometry" />
        </mxCell>
        <mxCell id="tW5KRWOFJC_Va-rLxCqM-61" value="tag" style="shape=partialRectangle;connectable=0;fillColor=none;top=0;left=0;bottom=0;right=0;align=left;spacingLeft=6;overflow=hidden;" vertex="1" parent="1">
          <mxGeometry x="190" y="350" width="150" height="30" as="geometry" />
        </mxCell>
        <mxCell id="tW5KRWOFJC_Va-rLxCqM-62" value="uploadTimestamp" style="shape=partialRectangle;connectable=0;fillColor=none;top=0;left=0;bottom=0;right=0;align=left;spacingLeft=6;overflow=hidden;" vertex="1" parent="1">
          <mxGeometry x="190" y="380" width="150" height="30" as="geometry" />
        </mxCell>
        <mxCell id="tW5KRWOFJC_Va-rLxCqM-63" value="authorDescription" style="shape=partialRectangle;connectable=0;fillColor=none;top=0;left=0;bottom=0;right=0;align=left;spacingLeft=6;overflow=hidden;" vertex="1" parent="1">
          <mxGeometry x="830" y="350" width="150" height="30" as="geometry" />
        </mxCell>
        <mxCell id="tW5KRWOFJC_Va-rLxCqM-64" value="authorPicBase64" style="shape=partialRectangle;connectable=0;fillColor=none;top=0;left=0;bottom=0;right=0;align=left;spacingLeft=6;overflow=hidden;" vertex="1" parent="1">
          <mxGeometry x="830" y="380" width="150" height="30" as="geometry" />
        </mxCell>
        <mxCell id="tW5KRWOFJC_Va-rLxCqM-65" value="siteBackgroundBase64" style="shape=partialRectangle;connectable=0;fillColor=none;top=0;left=0;bottom=0;right=0;align=left;spacingLeft=6;overflow=hidden;" vertex="1" parent="1">
          <mxGeometry x="830" y="410" width="150" height="30" as="geometry" />
        </mxCell>
        <mxCell id="tW5KRWOFJC_Va-rLxCqM-66" value="allowDownload" style="shape=partialRectangle;connectable=0;fillColor=none;top=0;left=0;bottom=0;right=0;align=left;spacingLeft=6;overflow=hidden;" vertex="1" parent="1">
          <mxGeometry x="830" y="470" width="150" height="30" as="geometry" />
        </mxCell>
        <mxCell id="tW5KRWOFJC_Va-rLxCqM-67" value="waterMarkBase64" style="shape=partialRectangle;connectable=0;fillColor=none;top=0;left=0;bottom=0;right=0;align=left;spacingLeft=6;overflow=hidden;" vertex="1" parent="1">
          <mxGeometry x="830" y="500" width="150" height="30" as="geometry" />
        </mxCell>
        <mxCell id="tW5KRWOFJC_Va-rLxCqM-68" value="siteColor" style="shape=partialRectangle;connectable=0;fillColor=none;top=0;left=0;bottom=0;right=0;align=left;spacingLeft=6;overflow=hidden;" vertex="1" parent="1">
          <mxGeometry x="830" y="440" width="150" height="30" as="geometry" />
        </mxCell>
        <mxCell id="tW5KRWOFJC_Va-rLxCqM-69" value="loginHash" style="shape=partialRectangle;connectable=0;fillColor=none;top=0;left=0;bottom=0;right=0;align=left;spacingLeft=6;overflow=hidden;" vertex="1" parent="1">
          <mxGeometry x="830" y="530" width="150" height="30" as="geometry" />
        </mxCell>
      </root>
    </mxGraphModel>
  </diagram>
</mxfile>
